<?xml version="1.0" encoding="UTF-8"?>
<svg xmlns="http://www.w3.org/2000/svg" viewBox="0 0 682.05 129.23">
    <g>
        <path d="m64.97,74.26c-4.68-1.96-9.52-3.29-14.54-4l-8.58-1.26c-5.58-.98-9.56-2.25-11.93-3.79-2.37-1.54-3.56-3.72-3.56-6.53,0-3.51,1.47-6.07,4.4-7.69,2.93-1.61,6.9-2.42,11.93-2.42s9.7.81,14.44,2.42c4.74,1.61,8.58,4.11,11.51,7.48l10.04-15.37c-3.91-4.07-9.17-7.3-15.8-9.69-6.63-2.39-13.7-3.58-21.24-3.58s-13.74,1.16-19.46,3.48c-5.72,2.32-10.22,5.69-13.5,10.11-3.28,4.42-4.92,9.87-4.92,16.32,0,5.9,1.39,10.67,4.19,14.32,2.79,3.65,6.45,6.43,10.99,8.32,4.53,1.9,9.38,3.34,14.54,4.32l11.09,2.1c2.79.42,5.16,1.02,7.11,1.79,1.95.77,3.49,1.86,4.61,3.26,1.11,1.4,1.67,3.3,1.67,5.69,0,3.51-1.29,6.25-3.87,8.21-2.58,1.97-7.15,2.95-13.7,2.95-5.86,0-11.51-1.09-16.95-3.26-5.44-2.18-9.63-5.16-12.55-8.95L0,114.27c3.35,4.35,8.72,7.93,16.11,10.74,7.39,2.81,15.55,4.21,24.48,4.21,13.11,0,23.19-2.6,30.24-7.79,7.04-5.19,10.57-12.63,10.57-22.32,0-6.74-1.57-12.08-4.71-16.01-3.14-3.93-7.05-6.88-11.72-8.85Z"/>
        <path d="m339.53.12l-22.81,5.48v28.9h-23.23l-.18,19.17h23.3v45.27c0,9.33,2.26,16.34,6.71,20.85,4.46,4.53,11.58,6.82,21.16,6.82h20.93v-20.09h-16.69c-3.46,0-5.89-.72-7.25-2.13-1.37-1.43-2.07-3.98-2.07-7.57v-8.69h.12v-34.46h35.78v73.04h22.6V34.5h-58.38V.12Z"/>
        <path d="m675.77,54.14c-4.19-7.51-10.08-13.44-17.68-17.8-7.6-4.35-16.57-6.53-26.89-6.53s-18.87,2.18-26.47,6.53c-7.6,4.35-13.53,10.29-17.79,17.8-4.26,7.51-6.38,16.11-6.38,25.8s2.13,17.83,6.38,25.27c4.25,7.44,10.18,13.31,17.79,17.59,7.6,4.28,16.43,6.42,26.47,6.42s19.28-2.14,26.89-6.42c7.6-4.28,13.5-10.14,17.68-17.59,4.18-7.44,6.28-15.86,6.28-25.27s-2.09-18.29-6.28-25.8Zm-20.3,40.65c-2.23,4.42-5.44,7.87-9.63,10.32-4.19,2.46-9.07,3.69-14.65,3.69s-10.22-1.23-14.33-3.69c-4.12-2.46-7.32-5.9-9.62-10.32-2.3-4.42-3.46-9.44-3.46-15.06,0-5.9,1.15-11.02,3.46-15.37,2.3-4.35,5.51-7.76,9.62-10.22,4.11-2.45,8.89-3.69,14.33-3.69s10.46,1.23,14.65,3.69c4.19,2.46,7.39,5.86,9.63,10.22,2.23,4.35,3.35,9.48,3.35,15.37s-1.12,10.64-3.35,15.06Z"/>
        <path d="m162.54,35.71c-7.09-3.77-15.4-5.68-24.68-5.68s-17.41,2.07-24.52,6.16c-7.11,4.09-12.73,9.96-16.7,17.45-3.96,7.47-5.96,16.28-5.96,26.17s2.07,18.49,6.15,25.91c4.09,7.43,9.97,13.27,17.45,17.36,7.46,4.08,16.33,6.15,26.36,6.15,11.56,0,21.35-3.19,29.1-9.49,7.75-6.31,12.58-14.49,14.35-24.33l.18-1.02h-21.8l-.17.65c-1.3,5.09-4,9.09-8.03,11.87-4.05,2.8-9.14,4.22-15.13,4.22-7.54,0-13.65-2.35-18.17-6.99-4.54-4.66-7.09-11.11-7.56-19.12v-.25h71.68l.1-.74c.38-2.62.57-5.23.57-7.76-.12-9.29-2.26-17.51-6.35-24.43-4.1-6.93-9.78-12.36-16.89-16.13Zm-48.25,32.64c.87-6,3.51-10.9,7.85-14.57,4.59-3.88,10.13-5.84,16.46-5.84,6.82,0,12.55,1.91,17.02,5.66,4.24,3.56,6.87,8.52,7.84,14.75h-49.18Z"/>
        <path d="m482.13,35.46c-7.09-3.77-15.4-5.68-24.68-5.68s-17.41,2.07-24.52,6.16c-7.11,4.09-12.73,9.96-16.7,17.45-3.96,7.47-5.96,16.28-5.96,26.17s2.07,18.49,6.15,25.91c4.09,7.43,9.97,13.27,17.45,17.36,7.46,4.08,16.33,6.15,26.36,6.15,11.56,0,21.35-3.19,29.1-9.49,7.75-6.31,12.58-14.49,14.35-24.33l.18-1.02h-21.8l-.17.65c-1.3,5.09-4,9.09-8.03,11.87-4.05,2.8-9.14,4.22-15.13,4.22-7.54,0-13.65-2.35-18.17-6.99-4.54-4.66-7.09-11.11-7.56-19.12v-.25h71.69l.1-.74c.38-2.62.57-5.23.57-7.76-.12-9.29-2.26-17.51-6.35-24.43-4.1-6.93-9.78-12.36-16.89-16.13Zm-48.25,32.64c.87-6,3.51-10.9,7.85-14.57,4.59-3.88,10.13-5.84,16.46-5.84,6.82,0,12.55,1.91,17.02,5.66,4.24,3.56,6.87,8.52,7.84,14.75h-49.18Z"/>
        <path d="m247.59,28.8c-12.62,0-22.68,4.19-29.93,12.44l-9.25-11.33h-11.81v96.78h21.78v-48.76c0-9.41,2.22-16.88,6.58-22.2,4.33-5.27,10.38-7.94,17.99-7.94,7.12,0,12.58,2.27,16.23,6.73,3.69,4.53,5.56,11.28,5.56,20.06v52.11h21.96v-53.22c0-15.52-3.68-26.97-10.94-34.03-7.25-7.06-16.73-10.64-28.17-10.64Z"/>
        <path d="m385.79,0c-7.52,0-13.62,6.1-13.62,13.62s6.1,13.62,13.62,13.62,13.62-6.1,13.62-13.62-6.1-13.62-13.62-13.62Z"/>
        <path d="m561.05,30.03c-4.47,0-8.72.84-12.76,2.53-4.05,1.68-7.32,4.71-9.84,9.06l-9.74-11.37h-11.81v96.46h22.81v-55.6c0-5.76,1.32-10.42,3.98-14,2.65-3.58,6.83-5.37,12.55-5.37,2.37,0,5.09.31,8.16.95,3.06.63,6.07,1.93,9,3.9l5.44-21.69c-2.23-1.68-4.95-2.91-8.16-3.69-3.21-.77-6.42-1.16-9.62-1.16Z"/>
    </g>
</svg>