<svg width="680" height="680" viewBox="0 0 680 680" fill="none" xmlns="http://www.w3.org/2000/svg">
<mask id="mask0_24_385" style="mask-type:alpha" maskUnits="userSpaceOnUse" x="0" y="0" width="680" height="680">
<rect width="680" height="680" rx="16" fill="#C4C4C4"/>
</mask>
<g mask="url(#mask0_24_385)">
<rect y="2.26651" width="680" height="680" fill="#1C1C1C"/>
<path fill-rule="evenodd" clip-rule="evenodd" d="M801.961 -1131.06L-949.732 -119.721L1072.95 3383.67L2824.64 2372.33L801.961 -1131.06Z" fill="#1C1C1C"/>
<g opacity="0.1">
<path d="M-18.7408 -145.159C-27.7579 -102.377 5.28209 -56.4088 34.4862 -15.7716C92.3711 64.7358 157.811 143.713 234.582 225.655C257.283 249.899 281.289 273.9 304.468 297.123C354.474 347.191 406.17 398.943 448.47 456.27C511.042 541.145 558.014 637.052 600.796 728.011C639.962 811.389 688.642 905.248 770.478 964.098C832.476 1008.66 909.322 1030.66 992.703 1027.69C1071.84 1024.88 1150.35 999.063 1213.75 954.947C1294.57 898.707 1350.75 823.367 1371.92 742.793C1380.54 709.96 1383.66 675.207 1386.69 641.602C1391.38 589.506 1396.22 535.64 1421.92 489.286C1461.25 418.343 1549.54 386.023 1622.9 415.728C1714.96 452.98 1732.84 564.186 1736.25 610.283C1738.63 642.219 1738.3 674.512 1737.99 705.715C1737.38 767.672 1736.75 831.725 1757.28 894.716C1784.47 978.05 1834.75 1050.82 1883.35 1121.14L1888.08 1127.99C1984.4 1267.42 2072.39 1417.29 2000.47 1581.53C1972.8 1644.73 1927.36 1698.79 1883.44 1751.1C1866.35 1771.42 1848.68 1792.44 1832.33 1813.72C1823.19 1825.52 1814.12 1837.72 1805.31 1849.49C1761.06 1908.84 1715.28 1970.19 1649.99 2008.74C1566.32 2058.09 1470.15 2048.19 1378.82 2033.77L1358.91 2030.63C1265.13 2015.75 1176.53 2001.69 1081.45 2002.92C1067.08 2003.12 1052.73 2003.62 1037.51 2004.11C962.821 2006.63 885.606 2009.24 821.861 1975.29C746.447 1935.13 712.921 1849.41 683.361 1773.78L681.559 1769.23C644.679 1674.98 605.242 1584.43 528.64 1512.92C488.154 1475.04 441.575 1444.29 396.537 1414.53C359.847 1390.3 321.923 1365.23 287.751 1336.6C278.031 1328.45 268.347 1320.3 258.711 1312.16C191.218 1255.19 127.459 1201.39 51.0495 1157.2C-18.6344 1116.9 -89.9208 1089.74 -165.446 1061C-180.736 1055.18 -196.058 1049.33 -211.441 1043.37C-246.727 1029.64 -277.626 1014.57 -304.483 997.884L-290.887 1021.43C-268.365 1033.96 -243.593 1045.47 -216.474 1056.04C-201.048 1062.02 -185.696 1067.87 -170.388 1073.7C-95.3984 1102.26 -24.6004 1129.23 44.1544 1168.97C119.504 1212.56 182.823 1266 249.868 1322.55C259.522 1330.69 269.184 1338.88 278.946 1347.02C313.698 1376.15 351.95 1401.44 388.934 1425.87C433.535 1455.31 479.593 1485.76 519.282 1522.84C593.802 1592.44 632.578 1681.48 668.861 1774.23L670.642 1778.8C701.051 1856.58 735.545 1944.78 815.423 1987.31C882.345 2022.96 961.421 2020.28 1037.92 2017.72C1053.04 2017.18 1067.32 2016.69 1081.56 2016.55C1175.47 2015.32 1263.5 2029.26 1356.71 2044.07L1376.61 2047.21C1466.29 2061.36 1569.32 2072.11 1656.88 2020.42C1724.58 1980.5 1771.18 1918.01 1816.25 1857.58C1825.02 1845.83 1834.08 1833.69 1843.11 1821.94C1859.31 1800.91 1876.88 1780.01 1893.86 1759.78C1938.44 1706.75 1984.51 1651.9 2012.97 1586.89C2087.69 1416.28 1997.81 1262.8 1899.34 1120.23L1894.61 1113.39C1846.54 1043.82 1796.84 971.933 1770.26 890.423C1750.41 829.542 1751 769.429 1751.63 705.779C1751.94 674.262 1752.26 641.687 1749.86 609.206C1746.26 560.593 1727.18 443.23 1628.11 403.129C1548.43 370.873 1452.61 405.859 1409.98 482.771C1382.89 531.642 1377.92 586.968 1373.1 640.48C1370.13 673.523 1367.05 707.703 1358.72 739.432C1338.39 816.862 1284.15 889.446 1205.99 943.813C1076.33 1034.04 896.532 1037.9 778.498 953.036C699.286 896.096 651.604 804.029 613.139 722.193C570.103 630.603 522.782 534.024 459.463 448.189C416.584 390.043 364.513 337.916 314.166 287.515C291.064 264.359 267.133 240.427 244.6 216.338C168.22 134.816 103.124 56.3043 45.5446 -23.8092C18.0288 -62.115 -13.1816 -105.506 -5.38076 -142.437C-1.38389 -161.45 12.4044 -177.797 36.779 -192.402C98.7293 -229.495 178.735 -242.329 274.537 -230.53C293.625 -228.185 312.969 -225.594 331.688 -223.096C406.554 -213.099 483.97 -202.753 561.993 -205.031C648.605 -207.538 747.169 -218.18 863.31 -237.527C980.8 -257.102 1075.1 -293.662 1151.6 -349.322C1177.14 -367.893 1198.89 -388.338 1218.16 -410.165L1211.04 -422.513C1191.67 -400.154 1169.78 -379.324 1143.6 -360.272C1068.87 -305.913 976.481 -270.155 861.142 -250.929C745.609 -231.685 647.664 -221.116 561.677 -218.611C484.771 -216.384 407.914 -226.641 333.587 -236.567C314.823 -239.075 295.44 -241.666 276.289 -244.028C177.39 -256.212 94.4611 -242.75 29.8014 -204.034C1.96974 -187.377 -13.9013 -168.121 -18.7408 -145.159" fill="white"/>
<path d="M-484.625 657.768C-488.326 639.491 -492.136 620.593 -496.13 602.349C-515.32 514.633 -533.377 413.238 -504.29 319.845C-482.334 249.351 -426.047 201.533 -371.601 155.273C-356.701 142.624 -341.311 129.553 -326.881 116.224C-291.579 83.6243 -257.39 48.8281 -222.374 9.85252C-211.577 -2.13753 -200.056 -14.2472 -188.882 -25.9626C-164.874 -51.1545 -140.075 -77.1968 -119.561 -105.273C-88.791 -147.445 -97.957 -189.861 -109.364 -222.124C-123.763 -262.734 -138.004 -306.365 -140.261 -353.795C-143.764 -427.879 -116.738 -498.66 -55.2153 -576.528C-23.7474 -616.342 10.1664 -655.311 43.5624 -693.2L6.99987 -672.09C-17.81 -643.586 -42.5108 -614.502 -65.9019 -584.897C-128.728 -505.403 -157.507 -429.562 -153.877 -353.081C-151.535 -303.797 -136.973 -259.081 -122.252 -217.517C-106.723 -173.698 -109.207 -142.517 -130.585 -113.241C-150.559 -85.8736 -175.054 -60.1577 -198.756 -35.2983C-209.971 -23.5188 -221.594 -11.3148 -232.496 0.815725C-267.228 39.4746 -301.138 73.9724 -336.126 106.279C-350.366 119.426 -365.646 132.389 -380.412 144.947C-436.344 192.463 -494.182 241.613 -517.319 315.888C-547.403 412.46 -529.031 515.912 -509.45 605.329C-505.492 623.457 -501.684 642.299 -498.008 660.531C-497.776 661.634 -497.549 662.757 -497.329 663.865L-475.683 701.357C-478.767 686.792 -481.705 672.237 -484.625 657.768Z" fill="white"/>
<path d="M1812.86 703.309C1816.55 780.589 1820.02 853.56 1846.57 926.038C1874.54 1002.38 1925.2 1065.96 1974.2 1127.42C1987.23 1143.76 2000.69 1160.66 2013.53 1177.56C2077.09 1261.11 2108.63 1332.55 2115.8 1409.02C2122.84 1484.06 2106.81 1562.8 2070.65 1630.73C2041.49 1685.5 1997.48 1730.92 1954.91 1774.85C1932.98 1797.45 1910.34 1820.85 1889.98 1845.2C1875.43 1862.63 1861.01 1881.44 1847.05 1899.59C1800.39 1960.32 1752.2 2023.15 1684.09 2057.83C1578.73 2111.43 1465.38 2092.8 1355.72 2074.75C1290.78 2064.07 1223.62 2053.02 1158.11 2056.69C1035.35 2063.64 942.704 2096.43 882.774 2154.21C868.708 2167.76 855.458 2181.89 842.667 2195.55C791.267 2250.38 742.732 2302.21 654.955 2298.86C620.75 2297.57 586.821 2293.58 554.04 2289.74C515.553 2285.22 476.179 2280.64 435.959 2280.37L437.929 2283.78C477.278 2284.19 515.878 2288.69 553.602 2293.11C586.469 2296.99 620.468 2300.94 654.792 2302.27C744.141 2305.65 793.219 2253.3 845.135 2197.86C857.921 2184.25 871.123 2170.16 885.131 2156.64C944.456 2099.47 1036.37 2067 1158.28 2060.09C1223.42 2056.43 1290.38 2067.46 1355.16 2078.12C1465.34 2096.23 1579.26 2114.94 1685.61 2060.82C1754.42 2025.8 1802.89 1962.7 1849.75 1901.65C1863.69 1883.51 1878.09 1864.73 1892.6 1847.37C1912.87 1823.09 1935.49 1799.78 1957.35 1777.2C2000.08 1733.08 2044.28 1687.5 2073.65 1632.3C2110.11 1563.77 2126.29 1484.38 2119.19 1408.71C2111.96 1331.53 2080.22 1259.63 2016.25 1175.49C2003.4 1158.57 1989.91 1141.66 1976.87 1125.29C1928.03 1064 1877.55 1000.66 1849.78 924.863C1823.41 852.837 1819.93 780.116 1816.28 703.13C1815.72 691.923 1815.2 680.696 1814.59 669.447C1813.64 651.963 1812.51 634.243 1810.93 616.506L1806.86 609.462C1808.81 629.604 1810.12 649.766 1811.19 669.66C1811.81 680.926 1812.34 692.126 1812.86 703.309" fill="white"/>
<path d="M1318.26 620.864C1326.74 567.729 1335.51 512.794 1358.81 463.096C1394.72 386.493 1476.94 336.344 1568.25 335.341C1600.24 334.991 1630.54 340.603 1657.89 351.443L1655.19 346.772C1628.49 336.775 1599.15 331.607 1568.22 331.947C1475.62 332.968 1392.2 383.883 1355.71 461.663C1332.19 511.797 1323.41 566.993 1314.91 620.34C1309.64 653.322 1304.21 687.443 1295.34 719.892C1272.58 803.317 1214.46 873.714 1135.91 913.008C1055.26 953.328 961.306 957.542 878.147 924.556C752.794 874.808 693.563 759.013 636.255 647.044C605.395 586.743 573.491 524.378 531.619 473.016C519.095 457.65 507.007 441.784 495.326 426.42C482.074 409 468.361 390.972 453.943 373.64C428.58 343.14 401.586 313.24 375.471 284.338C366.264 274.122 357.032 263.924 347.877 253.662L342.61 247.768C284.698 183.013 219.023 109.628 182.41 28.6963C160.685 -19.338 156.694 -63.7149 171.164 -96.266C182.211 -121.079 203.66 -138.843 234.93 -149.044C289.905 -167.004 349.535 -163.112 407.201 -159.363C438.607 -157.308 471.071 -155.202 502.154 -156.705C559.782 -159.509 617.92 -169.393 674.133 -178.961C688.172 -181.345 702.189 -183.739 716.168 -186.009C738.735 -189.669 761.725 -193.079 783.958 -196.374C829.277 -203.075 876.144 -210.006 921.825 -219.559C1049.92 -246.353 1152.78 -294.813 1241.08 -370.484L1239.35 -373.479C1151.39 -297.944 1048.88 -249.61 921.134 -222.886C875.564 -213.357 828.748 -206.418 783.485 -199.728C761.221 -196.435 738.24 -193.035 715.65 -189.362C701.652 -187.096 687.621 -184.698 673.584 -182.312C617.448 -172.772 559.424 -162.895 502.003 -160.098C471.125 -158.596 438.748 -160.718 407.446 -162.755C349.446 -166.522 289.483 -170.432 233.881 -152.276C201.657 -141.753 179.51 -123.358 168.058 -97.6255C153.165 -64.164 157.157 -18.7994 179.299 30.0907C216.12 111.509 281.991 185.109 340.048 250.046L345.315 255.938C354.496 266.186 363.71 276.414 372.944 286.614C399.016 315.505 425.992 345.373 451.286 375.82C465.671 393.098 479.367 411.095 492.605 428.487C504.3 443.876 516.404 459.772 528.961 475.162C570.603 526.252 602.429 588.456 633.215 648.597C690.799 761.138 750.355 877.493 876.872 927.705C960.939 961.055 1055.9 956.805 1137.41 916.033C1216.84 876.307 1275.61 805.117 1298.65 720.769C1307.55 688.131 1312.99 653.943 1318.26 620.864" fill="white"/>
<path d="M1260.88 578.817C1268.49 546.631 1276.37 513.354 1286.98 481.676C1319.65 384.166 1381.97 320.314 1472.15 291.932C1519.7 276.965 1567.87 270.642 1612.44 272.733L1610.43 269.253C1566.07 267.434 1518.28 273.848 1471.16 288.686C1379.83 317.421 1316.79 381.987 1283.75 480.614C1273.08 512.433 1265.19 545.796 1257.57 578.049C1245.07 630.906 1232.15 685.557 1206.67 734.759C1164.66 815.909 1088.01 863.09 1001.61 860.966C897.508 858.429 824.175 795.214 780.988 742.638C738.704 691.16 702.388 633.262 667.289 577.277C648.141 546.742 628.359 515.184 607.862 485.107C569.76 429.158 526.887 375.64 485.44 323.863C461.77 294.326 437.318 263.796 414.005 233.122L413.746 232.776C373.953 180.447 332.794 126.337 314.111 64.1184C304.793 33.1359 304.786 6.81483 314.045 -14.1171C331.165 -52.7762 376.951 -65.1863 422.387 -74.559C466.765 -83.7189 511.727 -93.8086 555.204 -103.571C614.553 -116.891 675.93 -130.676 736.671 -142.272C766.585 -147.985 797.331 -152.985 827.072 -157.838C898.973 -169.548 973.317 -181.641 1043.34 -204.85C1122.47 -231.071 1197.7 -271.596 1267.15 -325.339L1265.44 -328.302C1196.19 -274.659 1121.19 -234.208 1042.28 -208.073C972.521 -184.962 898.315 -172.874 826.555 -161.188C796.786 -156.356 765.993 -151.33 736.056 -145.604C675.248 -133.988 613.851 -120.21 554.466 -106.89C511.002 -97.1331 466.062 -87.0393 421.714 -77.8962C387.487 -70.813 330.201 -58.9898 310.928 -15.4706C301.328 6.2261 301.296 33.3283 310.844 65.1089C318.349 90.122 329.431 113.796 342.566 136.547C362.417 170.93 386.964 203.212 411.023 234.843L411.28 235.188C434.627 265.882 459.093 296.441 482.758 326.001C524.187 377.71 566.999 431.187 605.049 487.019C625.502 517.044 645.27 548.587 664.394 579.073C699.552 635.163 735.923 693.154 778.343 744.804C821.979 797.931 896.111 861.773 1001.51 864.374C1089.24 866.518 1167.08 818.651 1209.69 736.33C1235.37 686.736 1248.33 631.87 1260.88 578.817" fill="white"/>
<path d="M1258.09 419.456C1291.97 336.808 1356.15 277.75 1443.68 248.657C1475.27 238.17 1524.66 224.415 1581 218.279L1579.15 215.067C1523.12 221.336 1474.08 234.997 1442.61 245.44C1354.1 274.84 1289.22 334.581 1254.93 418.184C1242.67 448.106 1232.95 481.107 1222.64 516.053C1191.16 622.868 1158.62 733.305 1049.22 770.62C939.904 807.886 846.078 713.061 776.547 626.273C752.679 596.487 729.819 565.091 707.695 534.734C695.292 517.729 682.487 500.162 669.646 483.058C655.573 464.31 641.345 445.59 627.102 426.88C579.087 363.767 529.44 298.516 485.717 231.177C424.531 136.986 415.881 65.8403 459.949 19.7351C489.169 -10.8371 530.765 -29.359 570.845 -45.6949C576.065 -47.8182 582.902 -51.6128 590.817 -56.0111C609.966 -66.6279 636.204 -81.1694 649.563 -75.9384L650.252 -75.8239C662.927 -76.3357 674.929 -81.5726 686.536 -86.6577C691.058 -88.6424 695.327 -90.4996 699.642 -92.1143C718.31 -99.0743 738.543 -103.324 758.097 -107.428L764.811 -108.852C802.804 -116.914 841.801 -122.967 879.552 -128.834C896.064 -131.41 913.157 -134.059 929.938 -136.845C1032.08 -153.833 1126.39 -186.386 1210.27 -233.634C1237.78 -249.12 1264.69 -266.727 1290.88 -284.239L1289.18 -287.176C1262.99 -269.665 1236.08 -252.051 1208.6 -236.585C1125.08 -189.546 1031.13 -157.126 929.399 -140.205C912.632 -137.423 895.557 -134.769 879.045 -132.193C841.263 -126.327 802.212 -120.259 764.129 -112.164L757.418 -110.762C737.73 -106.62 717.369 -102.349 698.472 -95.3003C694.056 -93.6434 689.549 -91.6874 685.176 -89.7695C673.967 -84.8581 662.387 -79.8072 650.463 -79.2341C635.568 -84.6992 609.87 -70.4494 589.179 -58.9783C581.35 -54.6298 574.599 -50.8831 569.565 -48.8332C529.146 -32.3604 487.168 -13.6754 457.493 17.3899C416.056 60.7413 419.645 125.098 468.056 208.948C472.59 216.801 477.52 224.847 482.833 233.033C526.638 300.477 576.316 365.784 624.379 428.947C638.623 447.657 652.835 466.346 666.909 485.095C679.739 502.185 692.544 519.752 704.919 536.741C727.072 567.144 749.979 598.56 773.881 628.404C838.634 709.215 937.734 812.222 1050.31 773.834C1161.38 735.961 1194.18 624.644 1225.91 516.999C1236.17 482.14 1245.88 449.224 1258.09 419.456" fill="white"/>
<path d="M1193.08 460.278C1214.01 404.209 1235.65 346.23 1273.78 299.489C1329.64 231.004 1418.83 203.697 1506.86 184.404C1522.64 180.943 1538.86 177.402 1555.36 173.856L1548.22 161.489C1533.19 164.729 1518.42 167.966 1504 171.133C1413.54 190.959 1321.75 219.196 1263.22 290.952C1223.66 339.452 1201.63 398.494 1180.31 455.601C1175.89 467.448 1171.3 479.721 1166.67 491.581C1130.11 585.307 1086.54 642.989 1037.22 663.058C1006.16 675.678 971.93 673.629 935.452 656.961C843.457 614.923 774.624 525.132 713.899 445.898L708.628 439.038C699.643 427.328 690.324 415.434 681.315 403.943C648.222 361.732 614 318.102 587.079 271.475C574.923 250.419 565.152 230.4 557.196 210.263C537.496 160.438 534.663 118.334 548.785 85.1134C563.176 51.241 593.791 27.1006 626.615 3.36167C704.884 -38.2923 786.575 -65.6513 876.336 -80.2762C885.207 -81.7124 894.044 -83.1273 902.868 -84.5365C978.597 -96.6301 1056.92 -109.138 1130.75 -139.978C1185.45 -162.817 1237.68 -192.154 1288.18 -220.513C1298.03 -226.027 1308.01 -231.618 1318.03 -237.196L1311.25 -248.944C1301.26 -243.403 1291.33 -237.841 1281.55 -232.346C1231.39 -204.181 1179.5 -175.042 1125.52 -152.508C1053.21 -122.299 979.181 -110.479 900.772 -97.9578C891.934 -96.5453 883.088 -95.1444 874.225 -93.6941C782.771 -78.7936 699.566 -50.9015 619.825 -8.3992L619.416 -8.18193L619.043 -7.91184C584.422 17.0949 552.061 42.6214 536.237 79.8706C520.653 116.485 523.455 162.062 544.505 215.31C552.705 236.065 562.763 256.677 575.249 278.305C602.649 325.762 637.169 369.786 670.543 412.349C679.535 423.806 688.838 435.677 697.777 447.335L703.026 454.188C764.714 534.668 834.638 625.884 929.702 669.328C969.739 687.615 1007.63 689.734 1042.31 675.629C1096.02 653.79 1140.88 595.191 1179.38 496.448C1184.04 484.478 1188.64 472.168 1193.08 460.278" fill="white"/>
<path d="M1153.96 394.873C1180.23 329.138 1207.38 261.174 1261.36 214.02C1315.87 166.428 1387.93 150.099 1457.6 134.287C1479.39 129.355 1501.77 124.199 1523.23 118.211L1521.48 115.175C1500.35 121.053 1478.32 126.108 1456.87 130.972C1386.76 146.864 1314.29 163.297 1259.11 211.484C1204.53 259.146 1177.2 327.519 1150.79 393.637C1144.42 409.552 1137.87 425.997 1131.09 441.653C1087.15 543.084 1030.44 589.073 962.537 578.311C895.93 567.766 841.589 511.01 801.891 469.545C757.312 422.984 706.769 366.744 669.807 302.723L669.799 302.71C656.236 279.218 645.041 255.518 636.545 232.31C605.544 147.57 632.266 75.1038 715.82 16.9763C787.375 -24.5429 870.373 -35.4536 950.662 -46.0399C959.282 -47.1577 967.893 -48.2884 976.467 -49.4579C1070.88 -62.3264 1149.26 -87.4804 1223.09 -128.644L1235.2 -135.413C1269.64 -154.648 1306.27 -175.111 1343.87 -192.45L1342.16 -195.416C1304.57 -178.047 1267.97 -157.599 1233.53 -138.362L1221.43 -131.601C1147.98 -90.6602 1070 -65.636 976.029 -52.8329C967.466 -51.6725 958.855 -50.5395 950.231 -49.4032C869.619 -38.783 786.263 -27.817 714.016 14.1207C628.874 73.3155 601.733 147.128 633.326 233.483C641.898 256.892 653.17 280.759 666.833 304.423L666.84 304.436C703.985 368.772 754.709 425.187 799.431 471.899C839.442 513.713 894.25 570.946 961.983 581.667C1031.64 592.71 1089.58 546.037 1134.22 442.987C1141.02 427.276 1147.6 410.817 1153.96 394.873" fill="white"/>
<path d="M1130.32 -398.85C1151.23 -418.622 1169.83 -441.569 1185.67 -466.452L1183.77 -469.743C1167.87 -444.539 1149.12 -421.302 1127.97 -401.298C1064.83 -341.56 981.678 -305.188 858.404 -283.372C749.097 -264.038 647.242 -255.069 555.663 -256.729C480.42 -258.087 411.252 -273.498 338.021 -289.819C319.074 -294.03 299.482 -298.398 279.938 -302.456C259.671 -306.679 238.993 -310.596 218.992 -314.386C190.999 -319.683 162.071 -325.182 133.826 -331.53C128.378 -332.775 122.706 -333.969 116.905 -335.198C80.2488 -342.984 38.7164 -351.812 11.5278 -375.004C4.09643 -381.354 -2.06559 -388.67 -6.75619 -396.794L-6.76496 -396.809C-40.2179 -454.819 5.0636 -544.218 26.0892 -579.962C63.9987 -644.408 111.674 -703.33 159.403 -760.081L150.808 -755.119C105.01 -700.453 59.6134 -643.643 23.148 -581.666C-3.34311 -536.623 -42.8301 -452.493 -9.70195 -395.114L-9.69319 -395.098C-4.8138 -386.647 1.57431 -379.008 9.29361 -372.42C37.1487 -348.662 79.1281 -339.752 116.173 -331.887C121.965 -330.649 127.617 -329.448 133.06 -328.218C161.355 -321.842 190.313 -316.36 218.324 -311.034C238.317 -307.258 258.978 -303.336 279.231 -299.136C298.737 -295.079 318.328 -290.71 337.26 -286.492C410.662 -270.137 479.992 -254.684 555.57 -253.33C647.369 -251.667 749.448 -260.652 858.984 -280.022C982.947 -301.965 1066.64 -338.614 1130.32 -398.85Z" fill="white"/>
<path d="M1121.53 278.476C1129.6 253.108 1137.96 226.882 1148.2 202.797C1167.81 156.668 1190.27 126.22 1218.84 106.967C1250.22 85.8296 1288.57 81.2684 1325.67 76.8607C1334.73 75.7909 1344.1 74.6763 1353.11 73.3348C1383.84 68.7809 1435.73 61.045 1479.4 42.2934L1477.69 39.3389C1434.54 57.7962 1383.06 65.451 1352.64 69.9734C1343.67 71.2947 1334.32 72.414 1325.28 73.4946C1287.78 77.9407 1249.01 82.5515 1216.92 104.158C1187.78 123.799 1164.94 154.718 1145.07 201.469C1134.74 225.712 1126.39 252.02 1118.3 277.462C1101.7 329.586 1084.55 383.489 1049.48 425.304C997.123 487.73 922.383 468.77 869.884 430.212C825.426 397.552 784.305 351.781 757.088 304.64C728.265 254.716 691.125 159.703 765.991 84.3772C812.439 49.9388 872.643 30.805 944.898 27.5011C967.137 26.4828 990.357 27.2192 1012.78 27.9213C1054.09 29.2176 1096.81 30.5561 1137.06 21.3825C1186.6 10.0962 1228.21 -20.9796 1268.43 -51.0242C1299.13 -73.9353 1330.87 -97.6451 1365.91 -112.397C1372.12 -115.015 1378.88 -117.378 1386 -119.476L1384.26 -122.483C1377.3 -120.419 1370.69 -118.107 1364.59 -115.536C1329.16 -100.61 1297.26 -76.7723 1266.39 -53.723C1226.46 -23.9048 1185.14 6.9493 1136.32 18.0616C1096.5 27.1395 1054 25.8058 1012.9 24.5211C990.419 23.819 967.135 23.0817 944.759 24.1045C871.79 27.4392 810.968 46.7973 763.777 81.8362C687.103 158.926 724.824 255.602 754.124 306.351L754.133 306.366C781.572 353.892 823.013 400.027 867.849 432.944C921.585 472.423 998.226 491.718 1052.08 427.474C1087.58 385.132 1104.85 330.914 1121.53 278.476" fill="white"/>
<path d="M1089.41 -435.47C1115.36 -464.878 1135.63 -504.503 1140.21 -545.196L1137.26 -550.301C1133.9 -508.69 1113.4 -467.793 1086.86 -437.704C1039.44 -383.922 969.281 -347.236 872.409 -325.539C782.255 -305.365 679.571 -296.163 575.452 -298.963C483.741 -301.419 400.68 -323.675 304.183 -356.329C299.885 -357.78 295.415 -359.266 290.793 -360.817C228.927 -381.457 144.185 -409.72 111.619 -466.126L111.61 -466.142C106.458 -475.066 102.778 -484.533 100.661 -494.262C86.2227 -560.813 124.261 -625.92 167.527 -686.385C208.714 -743.941 257.482 -795.874 307.271 -845.453L295.932 -838.906C249.158 -791.925 203.621 -742.655 164.75 -688.336C121.042 -627.254 82.6119 -561.372 97.3268 -493.516C99.5239 -483.454 103.325 -473.674 108.658 -464.437C108.667 -464.422 108.667 -464.422 108.667 -464.422C141.876 -406.902 227.312 -378.396 289.691 -357.596C294.313 -356.045 298.78 -354.557 303.055 -353.112C399.861 -320.352 483.208 -298.031 575.328 -295.564C679.731 -292.757 782.704 -301.973 873.135 -322.232C970.749 -344.074 1041.51 -381.123 1089.41 -435.47Z" fill="white"/>
<path d="M468.934 569.744C460.598 555.307 451.908 541.373 443.046 528.392C382.811 439.797 307.089 365.535 240.953 304.581C219.932 285.222 198.924 264.638 178.589 244.75C129.679 196.846 79.0806 147.332 22.6348 108.495C-24.4566 76.1139 -96.0043 48.2529 -169.455 99.462C-287.598 195.025 -427.744 353.18 -424.01 563.696C-422.031 674.731 -401.828 770.08 -364.013 847.121C-361.24 852.759 -358.253 858.392 -355.109 863.838C-317.901 928.284 -255.58 978.674 -158.98 1022.42C-138.5 1031.68 -117.64 1040.81 -97.5173 1049.67C-28.4552 1079.94 42.9489 1111.24 108.87 1151.99C144.001 1173.73 178.481 1198.23 211.807 1221.92C259.123 1255.54 308.025 1290.32 359.742 1317.76C382.946 1330.09 407.438 1341.36 431.091 1352.26C491.82 1380.21 554.618 1409.1 602.627 1458.81C627.26 1484.3 649.269 1514.38 671.841 1553.47C689.206 1583.55 704.808 1615.37 719.874 1646.16C730.909 1668.62 742.269 1691.86 754.136 1713.92C759.176 1723.32 763.994 1731.99 768.848 1740.4C801.176 1796.39 854.213 1875.2 940.929 1912.83C997.697 1937.45 1060.33 1945.66 1120.93 1953.58C1144.33 1956.65 1168.51 1959.82 1191.97 1963.9C1216.39 1968.14 1241.19 1973.03 1265.17 1977.77C1332.64 1991.12 1402.42 2004.92 1472.44 2005.72C1565.05 2006.71 1647.5 1966.38 1717.44 1885.81C1780.53 1813.16 1841.87 1728.89 1899.8 1635.35C1948.19 1557.16 1967.65 1480.09 1957.6 1406.22C1949.09 1343.68 1926.3 1281.96 1885.89 1211.96C1859.57 1166.37 1828.44 1121.84 1798.32 1078.76C1768.34 1035.85 1737.33 991.496 1711.22 946.273C1701.83 930.003 1693.67 914.718 1686.25 899.491C1664.48 854.735 1651.69 814.062 1647.22 775.199C1643.83 745.729 1646.43 715.953 1648.94 687.151C1650.54 668.563 1652.22 649.339 1652.25 630.401C1652.34 593.592 1646.18 564.967 1633.43 542.895C1628.05 533.565 1621.39 525.293 1613.62 518.32C1581.86 489.787 1539.69 490.05 1508.66 519.014C1470.41 554.712 1470.26 615.038 1470.17 668.278C1470.14 679.416 1470.11 689.929 1469.74 699.898C1467.11 770.369 1428.73 839.418 1352.43 911.019C1287.68 971.809 1199.66 1045.45 1092.84 1075.78C1001.23 1101.78 901.562 1103.21 819.409 1079.66C742.716 1057.71 679.431 1002.02 625.958 909.407C594.667 855.209 570.396 795.323 550.862 747.199C526.968 688.297 502.218 627.394 468.934 569.744V569.744ZM-358.044 865.55C-358.044 865.55 -358.044 865.55 -358.052 865.537C-361.236 860.022 -364.28 854.344 -367.082 848.628C-405.133 771.151 -425.422 675.304 -427.417 563.782C-431.18 351.894 -290.33 192.858 -171.493 96.7406C-96.334 44.3404 -23.385 72.6984 24.5892 105.693C81.2755 144.68 131.975 194.303 180.984 242.323C201.309 262.178 222.306 282.75 243.275 302.079C309.53 363.176 385.45 437.586 445.89 526.468C454.76 539.535 463.522 553.52 471.9 568.032C505.299 625.879 530.079 686.904 554.042 745.924C573.51 793.93 597.748 853.695 628.925 907.694C681.939 999.517 744.547 1054.69 820.374 1076.4C901.938 1099.78 1000.9 1098.36 1091.93 1072.52C1198.02 1042.38 1285.63 969.074 1350.11 908.573C1425.71 837.615 1463.73 769.307 1466.33 699.776C1466.69 689.876 1466.73 679.394 1466.76 668.289C1466.87 614.364 1466.99 553.242 1506.33 516.53C1538.74 486.311 1582.78 486.005 1615.92 515.79C1623.95 523.005 1630.84 531.544 1636.41 541.179C1649.45 563.776 1655.75 592.97 1655.67 630.389C1655.64 649.475 1653.95 668.773 1652.32 687.42C1649.83 716.056 1647.26 745.641 1650.61 774.783C1655.04 813.275 1667.7 853.56 1689.32 897.985C1696.68 913.114 1704.82 928.365 1714.18 944.569C1740.22 989.677 1771.19 1033.97 1801.15 1076.84C1831.28 1119.94 1862.47 1164.54 1888.85 1210.24C1929.49 1280.64 1952.42 1342.77 1960.97 1405.75C1971.13 1480.4 1951.52 1558.25 1902.71 1637.15C1844.69 1730.86 1783.22 1815.26 1720.02 1888.04C1649.37 1969.39 1566.06 2010.14 1472.38 2009.1C1402.06 2008.32 1332.12 1994.5 1264.48 1981.12C1240.53 1976.38 1215.74 1971.49 1191.35 1967.25C1167.99 1963.19 1143.81 1960.03 1120.46 1956.98C1059.63 1949 996.749 1940.77 939.572 1915.93C851.896 1877.91 798.473 1798.48 765.916 1742.09C761.053 1733.67 756.192 1724.98 751.122 1715.55C739.253 1693.4 727.838 1670.15 716.829 1647.66C701.756 1616.94 686.173 1585.15 668.875 1555.19C646.436 1516.32 624.605 1486.47 600.178 1461.15C552.589 1411.92 490.102 1383.14 429.646 1355.34C405.929 1344.42 381.404 1333.14 358.106 1320.78C306.217 1293.2 257.22 1258.37 209.799 1224.69C176.515 1201.03 142.112 1176.58 107.044 1154.89C41.3116 1114.26 -29.9556 1083 -98.8777 1052.76C-119.072 1043.94 -139.909 1034.77 -160.397 1025.49C-257.665 981.455 -320.473 930.625 -358.044 865.55Z" fill="white"/>
<path d="M-139.408 229.933C-265.384 341.135 -341.092 515.593 -332.23 674.47C-328.884 734.177 -312.497 791.148 -284.776 839.161C-267.559 868.983 -245.992 895.55 -220.665 918.086C-164.415 968.236 -93.0497 1000.9 -24.0446 1032.53C-4.15291 1041.63 16.4207 1051.06 36.1138 1060.68C98.2196 1091.01 159.289 1125.69 218.352 1159.25C250.749 1177.63 284.238 1196.66 317.429 1214.7C357.085 1236.24 400.613 1252.25 446.791 1262.3C472.136 1267.82 498.683 1270.01 524.354 1272.13C547.864 1274.07 572.171 1276.09 595.929 1280.62C636.886 1288.48 668.984 1313.4 694.049 1356.82C710.602 1385.49 722.122 1418.15 733.262 1449.69C737.419 1461.5 741.389 1472.64 745.487 1483.38C770.628 1548.77 796.595 1616.4 831.985 1677.69C849.318 1707.72 867.367 1733.64 887.117 1756.93C919.141 1794.67 955.196 1824.41 994.343 1845.33C1022.11 1860.18 1052.89 1869.18 1082.61 1877.86C1097.52 1882.22 1112.91 1886.75 1127.88 1891.94C1154.23 1901.1 1182.63 1906.24 1210.14 1911.23C1225.4 1914.03 1241.19 1916.87 1256.49 1920.4C1262.21 1921.74 1267.95 1923.05 1273.69 1924.38C1316.29 1934.3 1360.38 1944.56 1404.41 1949.47C1471.89 1957.03 1568.52 1951.62 1645.57 1882.92C1703.02 1831.67 1744.49 1762.69 1784.59 1695.98C1792.18 1683.35 1800.04 1670.26 1807.81 1657.69C1848.74 1591.2 1889.96 1511.71 1885.04 1425.92C1881.32 1360.66 1858.75 1295.35 1811.87 1214.15C1803.89 1200.33 1794.9 1185.5 1784.36 1168.74L1778.73 1159.79C1728.78 1080.39 1677.16 998.282 1603.09 940.419C1526.87 880.849 1451.12 927.554 1380.04 980.48C1366.14 990.829 1351.83 1001.83 1337.98 1012.45C1274.4 1061.2 1208.68 1111.61 1135.32 1140.63C1062.34 1169.51 981.725 1179.01 903.756 1188.16C890.206 1189.78 876.685 1191.38 863.327 1193.06C857.305 1193.83 851.236 1194.64 845.093 1195.45C811.418 1200.01 776.61 1204.71 742.914 1200.34C696.142 1194.25 667.753 1161.55 646.161 1130.34C639.304 1120.44 632.574 1109.76 626.135 1098.61C597.176 1048.45 576.457 992.685 556.432 938.771C550.611 923.089 544.59 906.869 538.499 891.25C528.442 865.338 518.658 838.647 509.174 812.871C485.102 747.205 460.187 679.361 428.156 616.708C423.39 607.333 418.26 597.922 412.95 588.725C373.742 520.814 321.04 458.107 251.886 396.99C176.874 330.739 107.537 279.12 39.918 239.166C-30.6488 197.457 -90.9854 194.354 -139.408 229.933V229.933ZM-296.599 846.004L-296.606 845.991C-325.379 796.155 -342.4 737.116 -345.854 675.306C-350.402 593.48 -333.863 507.239 -297.955 425.875C-262.92 346.402 -211.12 275.062 -148.161 219.571L-147.695 219.19C-94.4206 179.855 -28.9372 182.651 46.9224 227.465C115.289 267.858 185.302 319.985 260.95 386.813C331.23 448.895 384.831 512.698 424.781 581.894C430.206 591.289 435.423 600.915 440.332 610.474C472.71 673.86 497.774 742.1 522.02 808.119C531.445 833.866 541.219 860.468 551.25 886.271C557.357 901.989 563.371 918.261 569.219 933.99C589.062 987.384 609.576 1042.6 637.968 1091.78C644.225 1102.62 650.766 1112.96 657.411 1122.56C677.3 1151.35 703.275 1181.46 744.745 1186.85C776.678 1191 810.567 1186.42 843.33 1182C849.503 1181.17 855.639 1180.34 861.698 1179.58C875.094 1177.89 888.617 1176.29 902.249 1174.69C979.323 1165.6 1059.05 1156.24 1130.34 1127.99C1201.92 1099.68 1266.87 1049.86 1329.69 1001.68C1343.58 991.031 1357.94 980.01 1371.93 969.61C1443.93 915.955 1527.76 864.215 1611.56 929.694C1687.48 989.029 1739.74 1072.13 1790.29 1152.51L1795.92 1161.45C1806.56 1178.36 1815.64 1193.37 1823.7 1207.32C1871.67 1290.42 1894.81 1357.58 1898.66 1425.06C1903.77 1514.6 1861.48 1596.47 1819.42 1664.73C1811.69 1677.29 1803.86 1690.32 1796.27 1702.92C1755.65 1770.5 1713.65 1840.4 1654.64 1893.02C1590.65 1950.08 1503.54 1974.25 1402.8 1962.98C1357.98 1957.98 1313.52 1947.62 1270.5 1937.61C1264.81 1936.32 1259.06 1934.99 1253.35 1933.65C1238.36 1930.22 1222.73 1927.37 1207.61 1924.63C1179.63 1919.54 1150.65 1914.27 1123.33 1904.79C1108.67 1899.69 1093.43 1895.22 1078.7 1890.9C1048.29 1882.01 1016.85 1872.8 987.845 1857.33C947.207 1835.6 909.771 1804.79 876.673 1765.78C856.371 1741.81 837.871 1715.24 820.143 1684.53C784.227 1622.32 758.056 1554.2 732.744 1488.3C728.566 1477.37 724.604 1466.16 720.4 1454.27C709.436 1423.31 698.126 1391.26 682.193 1363.66C658.894 1323.31 630.63 1301.16 593.271 1294C570.217 1289.56 546.27 1287.6 523.119 1285.69C497.021 1283.53 470.029 1281.3 443.786 1275.6C396.343 1265.27 351.627 1248.8 310.853 1226.64C277.532 1208.54 243.988 1189.49 211.539 1171.08C152.646 1137.63 91.747 1103.05 30.0497 1072.88C10.5138 1063.34 -10.0048 1053.97 -29.792 1044.88C-99.7267 1012.86 -172.023 979.736 -229.806 928.25C-256.191 904.747 -278.664 877.067 -296.599 846.004Z" fill="white"/>
<path d="M-670.65 241.467C-674.323 192.953 -665.86 159.821 -643.999 137.222C-617.921 110.247 -579.893 99.6574 -543.15 89.4292C-539.119 88.3209 -535.121 87.2073 -531.139 86.0682C-418.713 53.9851 -341.892 2.65646 -296.3 -70.8603C-252.236 -141.898 -246.744 -223.568 -241.441 -302.544C-236.053 -382.823 -230.487 -465.829 -184.276 -537.422C-174.752 -552.197 -164.105 -566.289 -152.773 -579.845L-161.1 -575.038C-170.379 -563.523 -179.143 -551.639 -187.152 -539.241C-233.852 -466.91 -239.423 -383.463 -244.866 -302.754C-250.132 -224.178 -255.585 -142.951 -299.192 -72.632C-344.32 0.123468 -420.489 50.9635 -532.072 82.8075C-536.031 83.9332 -540.018 85.0364 -544.039 86.1634C-579.521 96.0405 -619.706 107.21 -646.443 134.849C-676.15 165.571 -676.399 210.555 -674.034 241.727C-669.614 299.6 -657.802 356.414 -643.03 411.504L-636.33 423.108C-652.615 364.292 -665.904 303.465 -670.65 241.467Z" fill="white"/>
<path d="M356.591 610.547C355.158 608.066 353.708 605.614 352.248 603.152C305.963 525.484 235.855 459.828 143.895 407.999C38.9085 348.813 -42.9291 344.878 -99.3018 396.242C-173.025 477.938 -287.24 638.935 -222.637 798.188C-218.555 808.225 -213.719 818.112 -208.271 827.548C-168.205 896.945 -96.3812 940.683 -24.7291 977.624C-1.03292 989.836 22.9424 1002.78 46.0947 1015.29C105.617 1047.45 167.127 1080.72 231.081 1105.19C235.464 1106.85 239.993 1108.62 244.694 1110.46C303.026 1133.14 382.916 1164.23 437.877 1130.87C508.102 1088.2 481.027 979.287 463.131 907.204C461.56 900.995 460.087 895.088 458.776 889.585C441.002 815.018 411.101 704.961 356.591 610.547V610.547ZM-211.237 829.261C-211.237 829.261 -211.229 829.275 -211.237 829.261C-216.768 819.681 -221.678 809.667 -225.798 799.483C-291.104 638.526 -176.078 476.264 -101.738 393.883C-43.9942 341.253 39.1661 345.052 145.599 405.022C238.077 457.156 308.605 523.219 355.187 601.397C412.592 697.732 443.808 812.044 462.103 888.77C463.419 894.27 464.885 900.166 466.41 906.37C484.564 979.425 511.993 1089.82 439.627 1133.76C383.234 1168.02 302.434 1136.57 243.446 1113.61C238.739 1111.79 234.224 1110.04 229.853 1108.37C165.682 1083.83 104.067 1050.51 44.4505 1018.29C21.2915 1005.77 -2.62857 992.844 -26.2879 980.641C-98.4243 943.481 -170.735 899.413 -211.237 829.261" fill="white"/>
<path d="M301.677 659.622C255.943 580.408 170.706 493.812 68.6426 488.341C32.6023 486.436 -3.90727 498.012 -34.102 520.957C-95.5863 569.644 -134.561 636.794 -141.015 705.147C-144.744 744.401 -136.415 781.94 -116.316 816.752C-116.31 816.763 -116.31 816.763 -116.31 816.763C-98.6382 847.371 -72.1919 875.459 -37.7316 900.248C27.8892 947.401 115.238 990.331 201.997 1018C281.979 1043.48 334.771 1035.48 358.955 994.225C383.099 953.006 377.109 897.592 368.039 848.845C358.776 798.902 343.22 748.637 321.799 699.418C316.051 686.166 309.274 672.78 301.677 659.622V659.622ZM-119.276 818.476C-119.276 818.476 -119.276 818.476 -119.283 818.464C-139.743 783.025 -148.203 744.802 -144.417 704.865C-137.893 635.581 -98.4369 567.565 -36.1779 518.279C-5.28631 494.815 31.9828 482.99 68.8499 484.952C172.253 490.505 258.46 577.925 304.639 657.911C312.302 671.183 319.146 684.683 324.956 698.036C346.467 747.479 362.109 798.005 371.401 848.197C380.564 897.59 386.605 953.738 361.892 995.94C337.143 1038.16 281.489 1046.89 200.934 1021.23C113.855 993.465 26.153 950.381 -39.7183 903.01C-74.596 877.929 -101.366 849.496 -119.276 818.476" fill="white"/>
<path d="M32.2075 670.384C-10.9968 709.794 -3.61511 763.275 17.7262 800.24C23.8752 810.89 31.4493 820.826 40.2065 829.818C75.1536 865.537 151.321 908.087 203.721 886.009C219.631 879.314 230.603 867.655 236.361 851.36C251.107 809.666 228.551 750.101 214.538 724.455C213.804 723.13 213.077 721.817 212.329 720.521C192.494 686.165 164.342 662.028 130.872 650.712C94.9108 638.535 66.9134 652.745 34.5034 669.21L32.2075 670.384ZM14.76 801.952C-7.26362 763.806 -14.8227 708.507 30.0885 667.712L30.2634 667.557L32.9719 666.18C64.6987 650.069 94.6385 634.854 132.003 647.493C166.222 659.082 195.048 683.74 215.295 718.809C216.061 720.134 216.803 721.473 217.533 722.819C231.787 748.938 254.748 809.634 239.588 852.471C233.476 869.718 221.85 882.051 205.033 889.144C151.159 911.825 73.3792 868.586 37.7771 832.191C28.7863 823.01 21.0485 812.844 14.76 801.952" fill="white"/>
</g>
</g>
<path d="M62.046 606.712L45.548 606.42C45.548 613.136 47.3 619.122 50.804 624.378C54.308 629.634 59.126 633.576 65.258 636.496C71.39 639.416 78.398 640.876 86.574 640.876C93.874 640.876 100.298 639.562 106.138 636.934C111.832 634.306 116.358 630.51 119.57 625.692C122.782 621.02 124.388 615.618 124.388 609.486C124.388 603.354 122.782 598.244 119.862 594.448C116.796 590.652 112.854 587.878 108.182 585.834C103.364 583.936 97.67 582.33 91.1 581.162C84.53 579.994 79.566 578.972 76.062 577.95C72.558 577.074 69.638 575.614 67.594 573.57C65.55 571.672 64.528 569.044 64.528 565.686C64.528 561.014 66.28 557.51 69.784 554.882C73.288 552.254 78.106 550.94 84.092 550.94C90.224 550.94 95.188 552.546 99.276 555.758C103.218 558.97 105.554 563.204 106.138 568.46H122.636C122.344 562.328 120.446 556.926 117.234 552.108C113.876 547.436 109.35 543.64 103.656 540.866C97.816 538.238 91.392 536.778 84.092 536.778C76.938 536.778 70.66 538.092 65.112 540.574C59.564 543.202 55.33 546.706 52.264 551.232C49.198 555.904 47.738 561.014 47.738 566.854C47.738 573.278 49.198 578.388 52.118 582.184C55.038 586.126 58.98 589.046 63.652 590.944C68.324 592.842 74.018 594.302 80.734 595.47C87.158 596.638 92.268 597.806 95.918 598.828C99.422 599.996 102.342 601.456 104.386 603.5C106.43 605.544 107.598 608.172 107.598 611.53C107.598 616.348 105.554 620.144 101.758 622.772C97.962 625.4 92.852 626.714 86.72 626.714C79.566 626.714 73.726 624.962 69.346 621.312C64.966 617.662 62.484 612.844 62.046 606.712ZM139.314 582.622C136.248 588.462 134.788 595.178 134.788 602.77C134.788 610.362 136.248 617.078 139.46 622.772C142.672 628.612 147.052 632.992 152.892 636.204C158.732 639.416 165.448 640.876 173.332 640.876C182.238 640.876 189.684 638.54 195.67 633.576C201.656 628.758 205.306 622.48 206.766 614.888H190.998C189.83 619.122 187.64 622.334 184.428 624.67C181.07 627.006 176.982 628.028 172.164 628.028C166.032 628.028 161.068 626.13 157.418 622.334C153.622 618.538 151.578 613.428 151.286 606.858V605.982H207.642C207.934 603.938 208.08 602.04 208.08 599.996C207.934 592.842 206.328 586.564 203.116 581.162C199.904 575.906 195.67 571.672 190.122 568.752C184.574 565.832 178.296 564.372 171.142 564.372C163.988 564.372 157.71 565.978 152.162 569.19C146.614 572.402 142.38 576.782 139.314 582.622ZM192.02 594.448H151.87C152.454 589.192 154.498 585.104 158.294 581.892C162.09 578.68 166.47 577.074 171.726 577.074C177.274 577.074 181.8 578.68 185.45 581.746C189.1 584.812 191.29 589.046 192.02 594.448ZM281.856 572.548C276.308 567.146 269.008 564.372 260.248 564.372C249.882 564.372 241.852 568.022 236.304 575.03L234.552 565.248H220.828V640H236.596V602.332C236.596 594.74 238.348 588.9 241.852 584.52C245.356 580.14 250.32 577.95 256.598 577.95C262.438 577.95 266.818 579.848 269.884 583.498C272.804 587.294 274.41 592.696 274.41 599.704V640H290.324V598.828C290.324 586.856 287.404 578.096 281.856 572.548ZM309.482 579.118V619.706C309.482 626.714 311.088 631.824 314.3 635.036C317.512 638.394 322.768 640 329.922 640H345.106V626.13H333.134C330.214 626.13 328.316 625.546 327.148 624.378C325.98 623.21 325.396 621.02 325.396 618.1V579.118H343.354V565.248H325.396V544.37H309.482V565.248H296.488V579.118H309.482ZM368.314 538.092C366.416 536.34 364.08 535.318 361.452 535.318C358.678 535.318 356.342 536.34 354.59 538.092C352.692 539.844 351.816 542.18 351.816 544.808C351.816 547.582 352.692 549.918 354.59 551.67C356.342 553.422 358.678 554.298 361.452 554.298C364.08 554.298 366.416 553.422 368.314 551.67C370.066 549.918 371.088 547.582 371.088 544.808C371.088 542.18 370.066 539.844 368.314 538.092ZM353.568 565.248V640H369.336V565.248H353.568ZM386.545 582.622C383.479 588.462 382.019 595.178 382.019 602.77C382.019 610.362 383.479 617.078 386.691 622.772C389.903 628.612 394.283 632.992 400.123 636.204C405.963 639.416 412.679 640.876 420.563 640.876C429.469 640.876 436.915 638.54 442.901 633.576C448.887 628.758 452.537 622.48 453.997 614.888H438.229C437.061 619.122 434.871 622.334 431.659 624.67C428.301 627.006 424.213 628.028 419.395 628.028C413.263 628.028 408.299 626.13 404.649 622.334C400.853 618.538 398.809 613.428 398.517 606.858V605.982H454.873C455.165 603.938 455.311 602.04 455.311 599.996C455.165 592.842 453.559 586.564 450.347 581.162C447.135 575.906 442.901 571.672 437.353 568.752C431.805 565.832 425.527 564.372 418.373 564.372C411.219 564.372 404.941 565.978 399.393 569.19C393.845 572.402 389.611 576.782 386.545 582.622ZM439.251 594.448H399.101C399.685 589.192 401.729 585.104 405.525 581.892C409.321 578.68 413.701 577.074 418.957 577.074C424.505 577.074 429.031 578.68 432.681 581.746C436.331 584.812 438.521 589.046 439.251 594.448ZM509.376 565.248H505.872C500.032 565.248 495.506 566.27 492.148 568.314C488.644 570.358 485.87 572.986 483.826 576.49L482.074 565.248H468.058V640H483.826V602.478C483.826 596.054 485.286 590.652 488.206 586.418C491.126 582.184 495.798 579.994 502.368 579.994H509.376V565.248ZM531.152 636.204C536.992 639.416 543.562 640.876 551.154 640.876C558.6 640.876 565.17 639.416 571.01 636.204C576.85 632.992 581.23 628.612 584.442 622.772C587.654 616.932 589.26 610.216 589.26 602.624C589.26 595.178 587.654 588.608 584.442 582.768C581.23 576.928 576.85 572.402 571.01 569.19C565.17 565.978 558.6 564.372 551.154 564.372C543.562 564.372 536.992 565.978 531.152 569.19C525.312 572.402 520.932 576.928 517.72 582.768C514.508 588.608 513.048 595.178 513.048 602.624C513.048 610.216 514.508 616.932 517.72 622.772C520.932 628.612 525.312 632.992 531.152 636.204ZM567.068 620.582C562.98 625.254 557.724 627.444 551.154 627.444C544.438 627.444 539.182 625.254 535.24 620.582C531.152 615.91 529.254 609.924 529.254 602.624C529.254 595.324 531.152 589.484 535.24 584.812C539.182 580.14 544.438 577.804 551.154 577.804C557.724 577.804 562.98 580.14 567.068 584.812C571.156 589.484 573.2 595.324 573.2 602.624C573.2 609.924 571.156 615.91 567.068 620.582Z" fill="white"/>
</svg>
